# xmcd
#
# Track frame offsets:
#	183
#	14450
#	27558
#	37170
#	50473
#	63820
#	82910
#	94593
#	106488
#	118338
#
# Disc length: 1711 seconds
#
# Revision: 4
# Processed by: cddbd v1.5.2PL0 Copyright (c) Steve Scherf et al.
# Submitted via: EZCDAudioConverter 6.0.5.1
#
DISCID=8006ad0a
DTITLE=Reba McEntire - Behind The Scene
DYEAR=1983
DGENRE=Country
TTITLE0=Love Isn't Love ('Til You Give It Away)
TTITLE1=Is It Really Love
TTITLE2=Reasons
TTITLE3=Nickel Dreams
TTITLE4=One Good Reason
TTITLE5=You Really Better Love Me After This
TTITLE6=There Ain't No Future In This
TTITLE7=Why Do We Want (What We Know We Can't Have)
TTITLE8=I Sacrificed More Than You'll Ever Lose
TTITLE9=Pins And Needles
EXTD=
EXTT0=
EXTT1=
EXTT2=
EXTT3=
EXTT4=
EXTT5=
EXTT6=
EXTT7=
EXTT8=
EXTT9=
PLAYORDER=
